<svg width="164" height="23" viewBox="0 0 164 23" fill="none" xmlns="http://www.w3.org/2000/svg">
<g clip-path="url(#clip0_89_829)">
<path d="M52.46 13.66C52.46 16.24 50.23 17.17 47.52 17.17C44.4 17.17 42.48 15.74 42.48 13.22H45.89C45.8723 13.4491 45.9065 13.6793 45.99 13.8934C46.0735 14.1075 46.2042 14.3 46.3723 14.4566C46.5405 14.6132 46.7418 14.7299 46.9612 14.798C47.1807 14.8662 47.4127 14.8839 47.64 14.85C48.47 14.85 49.07 14.56 49.07 13.83C49.07 13 48.21 12.87 46.14 12.2C44.32 11.63 42.76 11.12 42.76 9.01003C42.76 6.75003 44.64 5.66003 47.61 5.66003C50.8 5.66003 52.33 7.29003 52.33 9.36003H48.85C48.872 9.16691 48.8501 8.9713 48.7861 8.78779C48.722 8.60428 48.6173 8.43759 48.4799 8.30014C48.3424 8.16269 48.1757 8.05803 47.9922 7.99395C47.8087 7.92987 47.6131 7.90802 47.42 7.93003C46.72 7.93003 46.11 8.25003 46.11 8.92003C46.11 9.72003 47.07 9.84003 48.92 10.45C50.86 11.02 52.46 11.53 52.46 13.67V13.66Z" fill="#202B30"/>
<path d="M57.5 10.2501H62.09C62.1121 9.94831 62.0702 9.6453 61.9669 9.36092C61.8636 9.07654 61.7013 8.81723 61.4907 8.60001C61.2801 8.38279 61.0259 8.21258 60.7449 8.10057C60.4638 7.98855 60.1623 7.93726 59.86 7.95006C59.5496 7.92849 59.2382 7.97273 58.9461 8.07987C58.6541 8.18701 58.3879 8.35463 58.1651 8.57176C57.9423 8.7889 57.7679 9.05064 57.6533 9.33986C57.5386 9.62908 57.4864 9.93925 57.5 10.2501ZM57.5 12.2601C57.4653 12.5863 57.5041 12.9163 57.6135 13.2256C57.7228 13.535 57.9 13.816 58.132 14.048C58.3641 14.28 58.645 14.4572 58.9544 14.5666C59.2638 14.6759 59.5937 14.7147 59.92 14.6801C60.3471 14.7406 60.7819 14.6498 61.1491 14.4233C61.5162 14.1968 61.7925 13.8489 61.93 13.4401H65.34C65.02 15.5101 63.08 17.1701 59.95 17.1701C56.12 17.1701 54.05 14.7801 54.05 11.4001C54.0015 10.6272 54.1186 9.85282 54.3933 9.12878C54.6681 8.40475 55.0942 7.74769 55.6432 7.20151C56.1922 6.65534 56.8515 6.23263 57.5769 5.96164C58.3024 5.69064 59.0773 5.57759 59.85 5.63006C63.26 5.63006 65.49 7.96006 65.49 10.6401C65.5032 11.1864 65.4597 11.7327 65.36 12.2701H57.48L57.5 12.2601Z" fill="#202B30"/>
<path d="M81.61 16.8799V10.9799C81.61 9.50995 81.1 8.61995 79.92 8.61995C78.87 8.61995 78.07 9.28995 78.07 11.3899V16.8699H74.72V10.9399C74.72 9.46995 74.24 8.60995 73.09 8.60995C72.04 8.60995 71.21 9.27995 71.21 11.4499V16.8699H67.86V5.93995H71.21V7.52995C71.5067 6.95339 71.9615 6.47323 72.5211 6.14562C73.0807 5.81801 73.722 5.65649 74.37 5.67995C75.0637 5.60163 75.764 5.75285 76.3637 6.11046C76.9633 6.46806 77.4292 7.01234 77.69 7.65995C78.0151 7.04299 78.5073 6.53005 79.1104 6.17988C79.7135 5.8297 80.403 5.65645 81.1 5.67995C84.29 5.67995 84.93 7.84995 84.93 10.1399V16.8699H81.61V16.8799Z" fill="#202B30"/>
<path d="M93.15 14.2C92.7916 14.1947 92.4381 14.1169 92.1106 13.9712C91.7832 13.8255 91.4887 13.6151 91.2448 13.3525C91.0009 13.0899 90.8127 12.7807 90.6916 12.4434C90.5704 12.1061 90.5189 11.7478 90.54 11.39C90.5137 11.0312 90.5616 10.6708 90.6809 10.3314C90.8001 9.99191 90.9881 9.6807 91.233 9.41715C91.478 9.15361 91.7746 8.94341 92.1044 8.79967C92.4343 8.65593 92.7902 8.58174 93.15 8.58174C93.5098 8.58174 93.8657 8.65593 94.1955 8.79967C94.5253 8.94341 94.822 9.15361 95.0669 9.41715C95.3118 9.6807 95.4998 9.99191 95.619 10.3314C95.7383 10.6708 95.7863 11.0312 95.76 11.39C95.7787 11.7472 95.7254 12.1045 95.6034 12.4408C95.4814 12.777 95.2931 13.0853 95.0497 13.3474C94.8062 13.6095 94.5127 13.82 94.1863 13.9665C93.86 14.1129 93.5076 14.1923 93.15 14.2ZM95.76 7.50002C95.4019 6.93513 94.9073 6.46954 94.3218 6.14621C93.7363 5.82288 93.0788 5.65224 92.41 5.65002C89.25 5.65002 87.09 8.14002 87.09 11.39C87.09 14.64 89.26 17.13 92.41 17.13C93.0755 17.1281 93.7301 16.9608 94.3148 16.6431C94.8996 16.3254 95.3962 15.8673 95.76 15.31V16.84H99.24V5.94002H95.76V7.50002Z" fill="#202B30"/>
<path d="M108.29 14.2C107.929 14.1982 107.572 14.1231 107.241 13.9792C106.909 13.8353 106.611 13.6256 106.363 13.3628C106.115 13.1001 105.923 12.7897 105.799 12.4506C105.675 12.1115 105.621 11.7506 105.64 11.39C105.62 11.0291 105.673 10.6679 105.797 10.3284C105.921 9.98891 106.113 9.67822 106.361 9.41528C106.609 9.15234 106.908 8.94267 107.239 8.79905C107.571 8.65544 107.929 8.5809 108.29 8.57997C108.648 8.58259 109.001 8.65886 109.328 8.80402C109.656 8.94919 109.949 9.16014 110.191 9.42374C110.433 9.68735 110.618 9.99796 110.735 10.3362C110.852 10.6745 110.898 11.0332 110.87 11.39C110.894 11.746 110.846 12.1033 110.728 12.4401C110.61 12.7769 110.425 13.0862 110.183 13.3491C109.942 13.6119 109.65 13.8229 109.324 13.9692C108.999 14.1155 108.647 14.194 108.29 14.2ZM109.02 5.64997C108.349 5.64328 107.689 5.81011 107.102 6.13428C106.515 6.45844 106.021 6.9289 105.67 7.49997V5.93997H102.19V20.26H105.67V15.32C106.028 15.8849 106.523 16.3505 107.108 16.6738C107.694 16.9971 108.351 17.1678 109.02 17.17C112.18 17.17 114.34 14.68 114.34 11.43C114.34 8.17997 112.17 5.65997 109.02 5.65997V5.64997Z" fill="#202B30"/>
<path d="M126.53 6.90003C126.168 6.47387 125.71 6.13939 125.194 5.92389C124.678 5.70839 124.118 5.61798 123.56 5.66003C122.857 5.61195 122.154 5.7593 121.529 6.0858C120.904 6.41229 120.382 6.9052 120.02 7.51003V2.53003H116.67V16.88H120.02V11.4C120.02 9.71003 120.72 8.63003 122.12 8.63003C123.52 8.63003 124.03 9.71003 124.03 11.28V16.89H127.38V10.42C127.503 9.1861 127.2 7.94723 126.52 6.91003L126.53 6.90003Z" fill="#202B30"/>
<path d="M138.14 11.4C138.16 11.0392 138.107 10.678 137.983 10.3385C137.859 9.99898 137.667 9.68828 137.419 9.42534C137.171 9.1624 136.872 8.95273 136.541 8.80912C136.209 8.6655 135.851 8.59096 135.49 8.59003C135.132 8.59265 134.779 8.66892 134.452 8.81408C134.124 8.95925 133.831 9.1702 133.589 9.4338C133.347 9.69741 133.162 10.008 133.045 10.3463C132.928 10.6846 132.882 11.0433 132.91 11.4C132.886 11.7561 132.934 12.1134 133.052 12.4502C133.17 12.787 133.355 13.0962 133.597 13.3591C133.838 13.622 134.13 13.833 134.456 13.9793C134.781 14.1256 135.133 14.2041 135.49 14.21C135.851 14.2088 136.209 14.1341 136.54 13.9904C136.872 13.8467 137.171 13.637 137.418 13.3741C137.666 13.1112 137.858 12.8006 137.982 12.4613C138.106 12.1219 138.16 11.7608 138.14 11.4ZM129.44 11.4C129.52 9.84276 130.195 8.37566 131.325 7.30169C132.456 6.22772 133.956 5.62891 135.515 5.62891C137.074 5.62891 138.574 6.22772 139.705 7.30169C140.835 8.37566 141.51 9.84276 141.59 11.4C141.602 12.1884 141.449 12.9706 141.143 13.6972C140.837 14.4238 140.383 15.0789 139.811 15.6212C139.239 16.1635 138.56 16.5811 137.818 16.8477C137.076 17.1143 136.287 17.2241 135.5 17.17C131.67 17.17 129.44 14.56 129.44 11.4Z" fill="#202B30"/>
<path d="M151.66 9.09998C151.268 8.98309 150.859 8.92909 150.45 8.93998C148.54 8.93998 147.29 9.92998 147.29 12.61V16.88H143.81V5.93998H147.29V7.72998C147.626 7.13813 148.113 6.64642 148.702 6.30544C149.291 5.96446 149.96 5.78654 150.64 5.78998C151 5.76302 151.362 5.82841 151.69 5.97998V9.09998H151.66Z" fill="#202B30"/>
<path d="M155.99 10.2501H160.58C160.602 9.94831 160.56 9.6453 160.457 9.36092C160.354 9.07654 160.191 8.81723 159.981 8.60001C159.77 8.38279 159.516 8.21258 159.235 8.10057C158.954 7.98855 158.652 7.93726 158.35 7.95006C158.04 7.92849 157.728 7.97273 157.436 8.07987C157.144 8.18701 156.878 8.35463 156.655 8.57176C156.432 8.7889 156.258 9.05064 156.143 9.33986C156.029 9.62908 155.976 9.93925 155.99 10.2501ZM155.99 12.2601C155.955 12.5863 155.994 12.9163 156.103 13.2256C156.213 13.535 156.39 13.816 156.622 14.048C156.854 14.28 157.135 14.4572 157.444 14.5666C157.754 14.6759 158.084 14.7147 158.41 14.6801C158.837 14.7408 159.272 14.6501 159.639 14.4235C160.006 14.197 160.283 13.849 160.42 13.4401H163.83C163.51 15.5101 161.57 17.1701 158.44 17.1701C154.61 17.1701 152.54 14.7801 152.54 11.4001C152.492 10.6272 152.609 9.85282 152.883 9.12878C153.158 8.40475 153.584 7.74769 154.133 7.20151C154.682 6.65534 155.341 6.23263 156.067 5.96164C156.792 5.69064 157.567 5.57759 158.34 5.63006C161.75 5.63006 163.98 7.96006 163.98 10.6401C163.993 11.1864 163.95 11.7327 163.85 12.2701H155.97L155.99 12.2601Z" fill="#202B30"/>
<path d="M13.2 22.37C11.8978 22.3701 10.6087 22.11 9.40839 21.6052C8.20805 21.1003 7.12065 20.3608 6.21 19.43L0 13.12L3.72 9.33997L9.94 15.65C10.3657 16.0823 10.8732 16.4257 11.4328 16.6601C11.9925 16.8944 12.5932 17.0151 13.2 17.0151C13.8068 17.0151 14.4075 16.8944 14.9672 16.6601C15.5268 16.4257 16.0343 16.0823 16.46 15.65L21.38 10.64C21.5476 10.4691 21.7475 10.3334 21.9682 10.2408C22.1888 10.1481 22.4257 10.1004 22.665 10.1004C22.9043 10.1004 23.1412 10.1481 23.3618 10.2408C23.5825 10.3334 23.7824 10.4691 23.95 10.64L26.39 13.12L20.19 19.44C19.2784 20.3681 18.1904 21.1046 16.99 21.606C15.7895 22.1075 14.5009 22.3638 13.2 22.36V22.37Z" fill="#202B30"/>
<path d="M32.16 13.06L25.94 6.73997C25.5167 6.30342 25.01 5.95634 24.45 5.71932C23.89 5.48229 23.2881 5.36016 22.68 5.36016C22.0719 5.36016 21.47 5.48229 20.91 5.71932C20.35 5.95634 19.8433 6.30342 19.42 6.73997L14.5 11.75C14.3324 11.9208 14.1325 12.0565 13.9118 12.1492C13.6912 12.2418 13.4543 12.2895 13.215 12.2895C12.9757 12.2895 12.7388 12.2418 12.5182 12.1492C12.2975 12.0565 12.0976 11.9208 11.93 11.75L9.48999 9.26997L15.7 2.93997C16.6097 2.00934 17.6963 1.26988 18.8958 0.765035C20.0953 0.260185 21.3836 0.00012207 22.685 0.00012207C23.9864 0.00012207 25.2747 0.260185 26.4742 0.765035C27.6737 1.26988 28.7603 2.00934 29.67 2.93997L35.89 9.25997L32.16 13.06Z" fill="#202B30"/>
</g>
<defs>
<clipPath id="clip0_89_829">
<rect width="163.98" height="22.37" fill="white"/>
</clipPath>
</defs>
</svg>
